# xmcd CD database file generated by Grip 3.2.0
# 
# Track frame offsets:
#       150
#       13927
#       28962
#       46629
#       65752
#       80726
#       103478
#       118752
#       137644
#       152581
#       174129
#       189763
#       207461
#       222965
#       241006
#       256957
#       273013
#       293318
#       310604
#       326694
# 
# Disc length: 4646 seconds
# 
# Revision: 1
# Processed by: cddbd v1.5.2PL0 Copyright (c) Steve Scherf et al.
# Submitted via: Grip 3.2.0
# 
DISCID=15122414
DTITLE=John Lennon - Lennon Legend (The Very Best of John Lennon)
DYEAR=1900
DGENRE=
TTITLE0=Imagine
TTITLE1=Instant Karma!
TTITLE2=Mother (Single Edit)
TTITLE3=Jealous Guy
TTITLE4=Power To The People
TTITLE5=Cold Turkey
TTITLE6=Love
TTITLE7=Mind Games
TTITLE8=Whatever Gets You Thru The Night
TTITLE9=No. 9 Dream
TTITLE10=Stand By Me
TTITLE11=(Just Like) Starting Over
TTITLE12=Woman
TTITLE13=Beautiful Boy (Darling Boy)
TTITLE14=Watching The Wheels
TTITLE15=Nobody Told Me
TTITLE16=Borrowed Time
TTITLE17=Working Class Hero
TTITLE18=Happy Xmas (War Is Over)
TTITLE19=Give Peace A Chance
EXTD=
EXTT0=
EXTT1=
EXTT2=
EXTT3=
EXTT4=
EXTT5=
EXTT6=
EXTT7=
EXTT8=
EXTT9=
EXTT10=
EXTT11=
EXTT12=
EXTT13=
EXTT14=
EXTT15=
EXTT16=
EXTT17=
EXTT18=
EXTT19=
PLAYORDER=
